<svg xmlns="http://www.w3.org/2000/svg" width="1868.062" height="1886.663" viewBox="0 0 1868.062 1886.663">
  <g id="Group_2109" data-name="Group 2109" transform="translate(-158.651 -282.305) rotate(-9)" opacity="0.05">
    <path id="Path_1970" data-name="Path 1970" d="M965.68,555.448,345.86,684.074,72.654,1098.887,96.9,1693.051,449.113,2050.8l537.3,156.714,508.645-371.661,207.287-478.668L1478.667,785.959Zm479.126,243.166-211.541,348.155L966.57,583.708Zm-1088.9,347.7,865.569,33.34L722.84,1892.7Zm337.107,743.542L149.1,1669.068l188.4-502.287Zm541.594-684.567,211.976,598.461-698.7,97.523Zm-26.264-51.529-819.1-31.56L949.922,608.235ZM367.175,705.5,934.729,587.788,344.884,1128.405Zm-27.349,33.947L319.792,1120.2l-212.909-27.131ZM98.961,1117.684l219.312,27.8L121.535,1670.021ZM127.243,1687.6l560.3,227.452L458.62,2024.059Zm363.978,349.023,221.96-105.684,97.826,198.976Zm490.347,143L844.195,2139.6,740.2,1927.925l724.136-101.037Zm495.513-366.408-221.742-625.7L1670.2,1367.382Zm-221.894-653.486L1463.386,817l204.248,521.582Z" transform="translate(0 0)" fill="#fff"/>
  </g>
</svg>
