<svg xmlns="http://www.w3.org/2000/svg" width="272.309" height="275.02" viewBox="0 0 272.309 275.02">
  <g id="Group_1843" data-name="Group 1843" transform="translate(-158.651 -500.081) rotate(-9)">
    <path id="Path_1970" data-name="Path 1970" d="M202.831,555.448,112.479,574.2,72.654,634.666l3.534,86.612,51.342,52.149,78.322,22.844L280,742.093l30.216-69.776L277.61,589.05Zm69.843,35.446-30.836,50.751-38.876-82.078ZM113.944,641.579l126.175,4.86L167.432,750.38Zm49.14,108.387L83.8,717.782l27.464-73.219Zm78.949-99.79,30.9,87.238L171.083,751.63Zm-3.828-7.512-119.4-4.6,81.73-74.921ZM115.587,577.321l82.733-17.159-85.982,78.806Zm-3.987,4.948-2.92,55.5-31.036-3.955ZM76.489,637.406l31.969,4.053L79.779,717.921Zm4.123,83.077,81.676,33.156-33.371,15.89Zm53.057,50.877,32.355-15.405,14.26,29Zm71.478,20.845-20.025-5.834-15.159-30.856,105.558-14.728Zm72.231-53.412-32.324-91.209,60.474,26.22Zm-32.346-95.259,30.349-49.96,29.773,76.031Z" transform="translate(0 0)" fill="#D8DBE1"/>
  </g>
</svg>
