<svg xmlns="http://www.w3.org/2000/svg" width="35.867" height="35.867" viewBox="0 0 35.867 35.867">
  <path id="icons8-linkedin" d="M32.579,0H3.288A3.317,3.317,0,0,0,0,3.288V32.579a3.317,3.317,0,0,0,3.288,3.288H32.579a3.317,3.317,0,0,0,3.288-3.288V3.288A3.317,3.317,0,0,0,32.579,0ZM10.461,29.889H4.483V13.45h5.978ZM7.472,11.507h0a2.76,2.76,0,0,1-2.989-2.69A2.788,2.788,0,0,1,7.472,5.978a2.76,2.76,0,0,1,2.989,2.69A2.788,2.788,0,0,1,7.472,11.507ZM31.383,29.889H25.406V20.922c0-2.391-1.644-2.989-2.092-2.989s-2.391.3-2.391,2.989v8.967H14.944V13.45h5.978v2.391c.9-1.345,2.391-2.391,5.231-2.391s5.231,2.242,5.231,7.472Z" fill="#13274c"/>
</svg>
