<svg id="Group_1908" data-name="Group 1908" xmlns="http://www.w3.org/2000/svg" width="121.809" height="148.862" viewBox="0 0 121.809 148.862">
  <path id="Path_2858" data-name="Path 2858" d="M268.378,212.717a15.926,15.926,0,1,0-4.418,25.625,13.544,13.544,0,1,1,7.518-7.513A15.915,15.915,0,0,0,268.378,212.717Z" transform="translate(-221.309 -163.323)" fill="#e24848" fill-rule="evenodd"/>
  <path id="Path_2859" data-name="Path 2859" d="M329.008,235.289a15.926,15.926,0,1,0-25.626-4.415,13.546,13.546,0,1,1,7.513,7.516A15.918,15.918,0,0,0,329.008,235.289Z" transform="translate(-231.744 -163.331)" fill="#e24848" fill-rule="evenodd"/>
  <path id="Path_2860" data-name="Path 2860" d="M332.361,269.247a22.62,22.62,0,0,0-15.086-38.6,22.625,22.625,0,1,0-21.618-39.635,22.625,22.625,0,1,0-34.8.182,22.626,22.626,0,1,0-21.968,39.412A22.621,22.621,0,1,0,255.8,269.2c.369-.368.712-.753,1.043-1.144a23.293,23.293,0,0,0,1.55-1.965l15.79,8.053-.218,5.1,7.58.122-.19-5.331,16.428-7.89a23.132,23.132,0,0,0,1.835,2.276c.242.28.486.559.752.825A22.624,22.624,0,0,0,332.361,269.247ZM318.68,199.221a18.993,18.993,0,0,1-25.845,27.8,13.451,13.451,0,0,0,3.493,2.06,15.819,15.819,0,0,1-3.577-2.348,11.023,11.023,0,1,0-1.431-1.414h0a15.861,15.861,0,0,1-2.505-3.755,13.455,13.455,0,0,0,2.062,3.5,18.993,18.993,0,0,1,27.8-25.845Zm-35.887-1.494a18.98,18.98,0,0,1-4.131.688l-.565-15.887-.681,15.91a19.043,19.043,0,0,1-3.155-.3,8.379,8.379,0,1,1,8.532-.413Zm4.275-1.8a18.9,18.9,0,0,1-2.725,1.289,10.978,10.978,0,1,0-11.112.709,18.907,18.907,0,0,1-2-.591,13.545,13.545,0,1,1,15.84-1.407Zm-9.687,3.322-1.465,34.28-10.948-8.121a22.617,22.617,0,0,0,.7-29.914A22.5,22.5,0,0,0,277.382,199.251Zm1.311.007a22.5,22.5,0,0,0,11.641-3.534,22.622,22.622,0,0,0,.846,29.71l-11.237,8.943Zm12.63,26.062a8.4,8.4,0,1,1,1.151,1.165l9.439-9.592Zm-32.7-45.879a19,19,0,1,1,31.28,14.5,15.922,15.922,0,1,0-19.835,2.937A19,19,0,0,1,258.624,179.442Zm-21.142,46.612a19,19,0,1,1,27.468-.657h0a13.47,13.47,0,0,0,2.4-3.864,15.824,15.824,0,0,1-2.52,3.768h0l0,0-10.348-7.676,9.221,8.812c-.031.027-.06.056-.092.083h0a8.377,8.377,0,1,1,1.221-1.221,10.916,10.916,0,1,0-1.414,1.4,15.805,15.805,0,0,1-3.584,2.35,13.451,13.451,0,0,0,3.982-2.5h0A18.989,18.989,0,0,1,237.483,226.053Zm-8.56,43.151a19,19,0,1,1,30.172-4.442l-.294-.11a15.926,15.926,0,1,0-7.53,7.543,13.545,13.545,0,1,1,7.527-7.544l-.369-.138a10.97,10.97,0,1,0-2.743,4.58,8.4,8.4,0,1,1,2.359-4.723l-11.317-4.222,11,5.608a8.333,8.333,0,0,1-2.039,3.337,15.832,15.832,0,0,1-4.414,3.1,13.44,13.44,0,0,0,3.5-2.061A18.988,18.988,0,0,1,228.923,269.2Zm30.3-4.394a22.64,22.64,0,0,0-9.952-32.153,22.532,22.532,0,0,0,14.553-6.1l11.9,11.375-1.39,32.515Zm21.995,5.472L280.1,238.977l.038.038,12.207-12.4a22.527,22.527,0,0,0,14.542,6.089,22.637,22.637,0,0,0-9.873,32.28Zm19.9-.572h0c-.216-.185-.432-.371-.637-.575a8.332,8.332,0,0,1-2.029-3.311l9.164-4.4-9.466,3.178a8.369,8.369,0,1,1,2.967,5.111,10.967,10.967,0,1,0-3.322-4.991l-.362.121c-.019-.039-.036-.079-.055-.118.016.041.034.08.05.12l-.281.094a19.03,19.03,0,1,1,4.25,5.24,13.453,13.453,0,0,0,3.493,2.061A15.861,15.861,0,0,1,301.114,269.711Z" transform="translate(-217.177 -154.026)" fill="#e24848" fill-rule="evenodd"/>
  <path id="Path_2861" data-name="Path 2861" d="M339.348,287.409A15.926,15.926,0,1,0,313.723,283a13.544,13.544,0,1,1,7.513,7.515A15.918,15.918,0,0,0,339.348,287.409Z" transform="translate(-233.523 -172.3)" fill="#e24848" fill-rule="evenodd"/>
  <path id="Path_2862" data-name="Path 2862" d="M237.764,329.518c-.729-.978-.321-5.267-.321-6.8a30.415,30.415,0,0,1,.035-3.524c.307-1.668,1.58-.013,1.747-1.513-.705-.376-3.069-.216-4.033-.185-.43,1.157-3.883,8.868-4.383,9.39l-4.352-9.423-4,.082c.145,1.422.421.407,1.466,1.15.589.948.431,9.337.137,10.849-.428.162-.579.128-.993.258-.85.267-.314-.241-.641.449.436.689.606.422,2.552.425,2.4,0,2.042.2,2.379-.425-.327-.753.148-.253-.809-.489a4.628,4.628,0,0,1-.839-.211,56.849,56.849,0,0,1-.127-8.368c1.229,1.509,3.592,8.794,4.669,9.487.861-.223,1.088-1.455,1.424-2.2l3.428-7.281c.657,11.857-.967,7.312-1.773,9.065.329.585.3.429,1.234.44,1.036.012,4.1.121,4.686-.248C239.047,329.21,238.765,330.219,237.764,329.518Z" transform="translate(-218.08 -182.145)" fill="#e24848" fill-rule="evenodd"/>
  <path id="Path_2863" data-name="Path 2863" d="M276.892,317.925c-1.46-.47-8.157-.8-9.273-.29.165,1.646,1.538-.257,1.775,1.727.11.921.267,9.49-.326,10.1-1,.918-1.306-.458-1.462,1.028,1.071.549,7.957.167,9.288-.36C282.642,327.85,281.855,319.52,276.892,317.925Zm-5.153,11.349,0-10.377c4.063-.585,6.546,1.159,6.477,5.32C278.153,328.15,275.651,329.907,271.739,329.274Z" transform="translate(-225.854 -182.135)" fill="#e24848" fill-rule="evenodd"/>
  <path id="Path_2864" data-name="Path 2864" d="M353.425,317.462c-1.1-.007-1.97-.3-2.227.539,1.138,1.348,1.791-1.234,1.786,3.389,0,1.5.114,3.539-.044,4.975l-6.926-8.488c-.639-.662-3.692-.638-4.2-.065.2.262-.406.152.529.525.415.166,1.649.243,1.913,1.267l.045,8.567c-.041,2.868-1.514.561-1.791,2.329.846.367,2.473.159,3.572.166,1.013.006.978.17,1.346-.425-.749-1.374-1.783.928-1.783-2.636l0-6.262c.536.339.6.547,1.142,1.214l5.094,6.209c.879,1.135,1.355,2.037,2.377,2.062.165-3.158-.167-10.684.267-12.282,1.176-.369,1.474.185,1.558-.958A11.19,11.19,0,0,0,353.425,317.462Z" transform="translate(-238.622 -182.136)" fill="#e24848" fill-rule="evenodd"/>
  <path id="Path_2865" data-name="Path 2865" d="M258.116,328.231c-1.626,2.233-5.3,1.114-5.429.991-.558-.548-.242-4.007-.254-4.814,6.437-.441,2.849,1.69,4.907,1.855a6.259,6.259,0,0,0,.214-2.611c.01-2.023.246-1.926-.443-2.317-.767.334-.184-.165-.545.835-.469,1.3-1.615,1.188-4.129.948l-.008-4.387a27.232,27.232,0,0,1,4.112.011c1.795.349.633,2.24,1.894,1.954.353-.226.266-1.1.238-1.561-.034-.547-.065-1.1-.1-1.647-1.6-.082-9.4-.238-10.247.176.212,1.58,1.583-.244,1.782,1.664l-.143,10.178c-1.038.434-1.5-.06-1.662.926.942.6,8.15.234,9.942.234.575-.339.668-1.114.9-1.789.63-1.87.578-1.356.233-1.875C258.344,327.094,259.223,326.71,258.116,328.231Z" transform="translate(-222.532 -182.138)" fill="#e24848" fill-rule="evenodd"/>
  <path id="Path_2866" data-name="Path 2866" d="M320.466,318.4c-.21.015-.027.129,0,0Z" transform="translate(-234.934 -182.312)" fill="#e24848" fill-rule="evenodd"/>
  <path id="Path_2867" data-name="Path 2867" d="M331.837,317.466c-1.973,0-2-.263-2.5.351.234.726-.19.3.621.544.2.06.693.1.973.191.364,1.235.257,5.579.2,7.18-.089,2.411-.863,3.7-3.274,3.882-2.689.2-3.306-1.41-3.389-3.883-.044-1.317-.2-6.082.183-6.973,1.15-1.032,1.5.363,1.614-1.216a19.514,19.514,0,0,0-3.091-.075c-1.788,0-2.347-.277-2.861.35.134.229.158.349.144.413a4.932,4.932,0,0,1,1.442.31c1.21,4.037-2.581,13.433,6.477,12.369,4.919-.577,4.147-5.54,4.127-9.892-.017-3.864.854-1.8,1.81-3.013C334.07,317.185,334.094,317.466,331.837,317.466Z" transform="translate(-234.924 -182.14)" fill="#e24848" fill-rule="evenodd"/>
  <path id="Path_2868" data-name="Path 2868" d="M305.946,319.079c.821-.907,2.462-.736,3.451-.026,1.358.975.808,1.693,1.463,2.974,1.122-.044.755-.954.749-2.173a6.276,6.276,0,0,0-.185-2.62c-1.252-.108-.164.041-1.129.614-1.619-.5-5.151-1.755-6.507,1.527-1.759,4.26,4.261,5.439,5.927,7.267,1.936,2.124-1.543,4.289-4.056,2.175a3.672,3.672,0,0,1-1.091-2.288c-.326-.7.244-.417-.677-.436-.558.722-.273,2.407-.281,3.374-.022,2.855,1.219.754,1.223.75,1.485.238,2.147.844,3.931.67a4.245,4.245,0,0,0,2.928-1.539C316.013,323.657,303.031,322.3,305.946,319.079Z" transform="translate(-232.026 -182.103)" fill="#e24848" fill-rule="evenodd"/>
  <path id="Path_2869" data-name="Path 2869" d="M294.836,329.74a5.1,5.1,0,0,1-.851-.247c-.19-.8-.437-10.4.195-10.941.959-.479,1.154.207,1.462-.738-.483-.565-5.427-.569-5.92,0,.393.531-.407.231.688.547a3.33,3.33,0,0,1,.892.252c.459,1.213.323,9.438.058,10.9-1.364.624-1.256-.153-1.653.725.416.724,1.053.425,2.966.424,1.939,0,2.587.3,2.985-.424C295.338,329.473,295.879,330.012,294.836,329.74Z" transform="translate(-229.658 -182.137)" fill="#e24848" fill-rule="evenodd"/>
</svg>
