<svg id="Group_1322" data-name="Group 1322" xmlns="http://www.w3.org/2000/svg" width="97" height="97.001" viewBox="0 0 97 97.001">
  <path id="Path_1041" data-name="Path 1041" d="M95.384,93.767H69.344c-1.195-6.136-9.1-10.813-19.227-11.268V21.017H61.434v6.467a3.237,3.237,0,0,0,3.233,3.233H85.684a3.237,3.237,0,0,0,3.233-3.233V14.425a3.237,3.237,0,0,0-3.233-3.233h-9.7V6.342a3.177,3.177,0,0,0-3.233-3.109H50.117V1.617a1.617,1.617,0,1,0-3.233,0V48.438a6.392,6.392,0,0,0-3.233-.9H37.575a3.253,3.253,0,0,1-2.286-.947l-4.5-4.5a16.161,16.161,0,1,0-19.739-25.22A16.047,16.047,0,0,0,6.473,28.6a16.245,16.245,0,0,0,6.6,12.476H8.724a5.5,5.5,0,0,0-5.491,5.491V64.68a5.5,5.5,0,0,0,5.491,5.492H14.55v19.4a7.379,7.379,0,0,0,1.307,4.195H1.617a1.617,1.617,0,0,0,0,3.234H95.384a1.617,1.617,0,0,0,0-3.233ZM75.42,20.627c.018-.016.028-.037.046-.054a2.468,2.468,0,0,0,.336-.462,1.514,1.514,0,0,0,.073-.171,1.6,1.6,0,0,0,.089-.441c0-.034.02-.064.02-.1V14.425h9.7V27.484H67.427ZM64.667,25.591V21.017H70ZM50.117,6.467l22.634-.125V17.784h-9.7a1.528,1.528,0,0,0-.3.06l-12.637.065V6.467ZM24.25,15.305A12.96,12.96,0,0,1,35.466,26.522h-9.6a1.618,1.618,0,0,1-1.617-1.617v-9.6Zm-9.7,51.634H8.724a2.26,2.26,0,0,1-2.258-2.258V46.563a2.26,2.26,0,0,1,2.258-2.258H14.55ZM9.706,28.506h0a12.939,12.939,0,0,1,11.31-13.2v9.6a4.855,4.855,0,0,0,4.85,4.85h9.6a12.937,12.937,0,0,1-13.2,11.311A13.087,13.087,0,0,1,9.706,28.506ZM27.484,89.573a4.2,4.2,0,0,1-4.195,4.195h-1.31a4.2,4.2,0,0,1-4.195-4.195V69.891h9.7V89.573Zm0-22.915h-9.7V46.592l9.7,9.7ZM20.069,44.305h8.361L33,48.878a6.509,6.509,0,0,0,4.572,1.895H43.65a3.233,3.233,0,1,1,0,6.467H34.342a3.253,3.253,0,0,1-2.286-.947l-1.813-1.813ZM30.717,59.353a6.509,6.509,0,0,0,3.625,1.119H43.65a6.393,6.393,0,0,0,3.233-.9V82.5C40,82.809,34.14,85.071,30.717,88.421V59.353Zm.259,34.415c1.459-4.521,8.892-8.083,17.525-8.083s16.066,3.563,17.525,8.083Z" fill="#e24848"/>
</svg>
