<svg xmlns="http://www.w3.org/2000/svg" width="79.571" height="97" viewBox="0 0 79.571 97">
  <g id="diamond" transform="translate(-0.5)">
    <path id="Path_1050" data-name="Path 1050" d="M202.465,249.945a1.973,1.973,0,1,0-1.973-1.973A1.973,1.973,0,0,0,202.465,249.945Zm0,0" transform="translate(-162.181 -199.473)" fill="#e24848"/>
    <path id="Path_1051" data-name="Path 1051" d="M204.437,14.992V1.973a1.973,1.973,0,0,0-3.945,0v13.02a1.973,1.973,0,0,0,3.945,0Zm0,0" transform="translate(-162.181)" fill="#e24848"/>
    <path id="Path_1052" data-name="Path 1052" d="M54.368,61.459a1.972,1.972,0,0,0,.722-2.695L49.172,48.515a1.973,1.973,0,0,0-3.417,1.973l5.918,10.249A1.972,1.972,0,0,0,54.368,61.459Zm0,0" transform="translate(-36.115 -38.153)" fill="#e24848"/>
    <path id="Path_1053" data-name="Path 1053" d="M329.172,60.737l5.918-10.249a1.973,1.973,0,1,0-3.417-1.973l-5.918,10.249a1.973,1.973,0,1,0,3.417,1.973Zm0,0" transform="translate(-264.162 -38.153)" fill="#e24848"/>
    <path id="Path_1054" data-name="Path 1054" d="M.923,167.673l.007.008,0,0,37.882,45.828c0,.006.01.01.015.016a1.913,1.913,0,0,0,2.925-.016l37.882-45.828,0,0,.007-.008a1.839,1.839,0,0,0,.01-2.339L64.5,146.7a1.925,1.925,0,0,0-1.479-.7H17.53a1.919,1.919,0,0,0-1.46.7L.913,165.334a1.846,1.846,0,0,0,.01,2.339Zm5.452.688h16.4l12.2,34.593ZM45.6,202.954l12.2-34.593h16.4Zm18.086-51.29,10.549,12.97H59.11Zm-3.327-1.937L55.713,162.9,44.372,149.727Zm-8.112,14.907H47.862a1.864,1.864,0,1,0,0,3.727h5.923l-13.5,38.288-13.5-38.288h5.923a1.864,1.864,0,1,0,0-3.727H28.323l11.961-13.887ZM36.2,149.727,24.855,162.9l-4.643-13.168Zm-19.313,1.937,4.574,12.97H6.335Zm0,0" transform="translate(0 -117.2)" fill="#e24848"/>
  </g>
</svg>
