<svg xmlns="http://www.w3.org/2000/svg" width="97" height="97" viewBox="0 0 97 97">
  <g id="Group_2109" data-name="Group 2109" transform="translate(-379 -1803)">
    <g id="Group_1419" data-name="Group 1419" transform="translate(379 1831.234)">
      <g id="Group_1418" data-name="Group 1418">
        <path id="Path_1652" data-name="Path 1652" d="M97.045,154.446,88.4,162.969,74.385,149.144l8.642-8.523-2.309-2.277-9.8,9.661-7.685,7.579H38.466l-7.685-7.579-9.8-9.661-2.309,2.277,8.642,8.523L13.3,162.969l-8.642-8.523L2.35,156.723l9.8,9.661,8.163,8.051,8.653,8.489-1.306,1.288a4.927,4.927,0,0,0-.039,7.036l.039.039a5.119,5.119,0,0,0,3.406,1.449,4.906,4.906,0,0,0,1.492,3.338,5.126,5.126,0,0,0,3.406,1.449,4.907,4.907,0,0,0,1.5,3.34,5.126,5.126,0,0,0,3.406,1.449,4.906,4.906,0,0,0,1.492,3.338,5.171,5.171,0,0,0,7.2,0l1.293-1.277,1.293,1.267a5.147,5.147,0,0,0,7.208-.006,5,5,0,0,0,1.486-3.346,5.125,5.125,0,0,0,3.407-1.459,4.939,4.939,0,0,0,1.491-3.351,5.127,5.127,0,0,0,3.407-1.46,4.939,4.939,0,0,0,1.491-3.351,5.037,5.037,0,0,0,4.9-5.178,4.976,4.976,0,0,0-1.492-3.376L72.8,182.9l8.586-8.468,8.163-8.051,9.8-9.661Zm-81.436,10.8L29.627,151.42l5.855,5.774L21.464,171.02ZM32.566,189a1.866,1.866,0,0,1-2.612,0,1.74,1.74,0,0,1-.018-2.484l.018-.018,1.327-1.3,2.591,2.525Zm4.877,4.794a1.87,1.87,0,0,1-2.591,0,1.743,1.743,0,0,1-.015-2.489l.015-.015L36.173,190l2.576,2.525Zm4.919,4.786a1.87,1.87,0,0,1-2.612,0,1.74,1.74,0,0,1-.018-2.484l.018-.018,1.316-1.288,2.575,2.525Zm4.9,4.789a1.87,1.87,0,0,1-2.6,0,1.74,1.74,0,0,1-.018-2.484l.018-.018,1.306-1.28,2.575,2.525Zm24.493-14.444-.009.009h.007a1.858,1.858,0,0,1-2.593,0l-2.449-2.406a1.649,1.649,0,0,0-2.309,0,1.6,1.6,0,0,0,0,2.278l2.449,2.406a1.765,1.765,0,0,1,.009,2.521l-.009.009a1.858,1.858,0,0,1-2.593,0l-2.449-2.406a1.649,1.649,0,0,0-2.309,0,1.6,1.6,0,0,0,0,2.278l2.449,2.406a1.765,1.765,0,0,1,.009,2.521l-.009.009a1.858,1.858,0,0,1-2.593,0l-2.449-2.406a1.649,1.649,0,0,0-2.309,0,1.6,1.6,0,0,0,0,2.278l2.449,2.406a1.765,1.765,0,0,1,.009,2.521l-.009.009a1.861,1.861,0,0,1-2.594,0L23.776,173.3,38.47,158.8h5.243L31.728,170.9a1.6,1.6,0,0,0,.013,2.264,11.552,11.552,0,0,0,7.613,3.343,10.283,10.283,0,0,0,7.757-2.935,1.558,1.558,0,0,0,.194-.23l.591-.855a14.974,14.974,0,0,0,12.5,2.765L71.744,186.4A1.765,1.765,0,0,1,71.753,188.921Zm-1.248-8.29L63.655,173.9l1.238-.929a1.438,1.438,0,0,0,.163-.147l1.633-1.61-2.309-2.277-1.553,1.531-1.412,1.05a11.462,11.462,0,0,1-12.686-2.576,1.649,1.649,0,0,0-2.309,0,1.6,1.6,0,0,0-.194.231L44.684,171.4a7.1,7.1,0,0,1-5.189,1.894,8.31,8.31,0,0,1-4.2-1.388l12.975-13.1H63.237L77.931,173.3Zm9.736-9.611L66.222,157.195l5.855-5.774,14.018,13.825Z" transform="translate(-2.35 -138.344)" fill="#e24848"/>
      </g>
    </g>
    <g id="Group_1425" data-name="Group 1425" transform="translate(411.175 1803)">
      <g id="Group_1424" data-name="Group 1424">
        <path id="Path_1653" data-name="Path 1653" d="M179.6,29.388A13.076,13.076,0,0,0,192.66,16.327a1.633,1.633,0,0,0-1.633-1.633h-3.265a13.021,13.021,0,0,0-9.8,4.451V13.061H179.6A11.442,11.442,0,0,0,191.027,1.633,1.633,1.633,0,0,0,189.394,0h-3.265a11.429,11.429,0,0,0-9.8,5.572A11.429,11.429,0,0,0,166.537,0h-3.265a1.633,1.633,0,0,0-1.633,1.633,11.442,11.442,0,0,0,11.429,11.429H174.7v6.083a13.021,13.021,0,0,0-9.8-4.451h-3.265a1.633,1.633,0,0,0-1.633,1.633,13.076,13.076,0,0,0,13.061,13.061H174.7v2.589L164.228,42.45h4.617l7.487-7.487,7.487,7.487h4.617L177.965,31.978V29.388Zm8.163-11.429h1.5a9.812,9.812,0,0,1-9.661,8.163h-1.5A9.812,9.812,0,0,1,187.761,17.959ZM186.129,3.265H187.6a8.177,8.177,0,0,1-8,6.531h-1.469A8.176,8.176,0,0,1,186.129,3.265ZM173.067,9.8a8.176,8.176,0,0,1-8-6.531h1.469a8.177,8.177,0,0,1,8,6.531Zm0,16.327a9.812,9.812,0,0,1-9.661-8.163h1.5a9.812,9.812,0,0,1,9.661,8.163Z" transform="translate(-160.006)" fill="#e24848"/>
      </g>
    </g>
  </g>
</svg>
